<svg width="347" height="48" fill="none" xmlns="http://www.w3.org/2000/svg"><path d="M30.86 48H4.124C1.846 48 0 46.216 0 44.021V18.249c0-1.052.433-2.058 1.208-2.813l14.905-14.27A4.17 4.17 0 0 1 19.031 0h26.734c2.279 0 4.125 1.784 4.125 3.979v25.772a3.922 3.922 0 0 1-1.208 2.813l-14.906 14.27A4.17 4.17 0 0 1 30.86 48z" fill="url(#paint0_linear_4630_1921)"/><path d="M338.194 40.66c-1.573 0-2.988-.248-4.245-.743-1.256-.508-2.259-1.218-3.008-2.132a5.562 5.562 0 0 1-1.218-3.18h4.493c.063.52.266.965.609 1.333.355.368.812.654 1.37.857.572.19 1.232.285 1.98.285.698 0 1.327-.101 1.885-.304.559-.203.99-.483 1.295-.838.317-.368.476-.793.476-1.275 0-.356-.089-.68-.267-.971a1.977 1.977 0 0 0-.723-.724 2.627 2.627 0 0 0-1.066-.4l-4.322-.723c-1.041-.165-1.948-.508-2.722-1.028a5.728 5.728 0 0 1-1.809-1.98 5.422 5.422 0 0 1-.628-2.59c0-1.154.311-2.182.933-3.083.621-.914 1.504-1.625 2.646-2.133 1.155-.52 2.481-.78 3.979-.78 1.472 0 2.792.241 3.96.723 1.18.483 2.113 1.168 2.798 2.056.698.889 1.092 1.93 1.181 3.123h-4.474a2.426 2.426 0 0 0-.591-1.276c-.304-.368-.71-.653-1.218-.857a4.325 4.325 0 0 0-1.656-.304c-.635 0-1.2.101-1.695.304-.482.19-.856.464-1.123.82a1.98 1.98 0 0 0-.4 1.218c0 .342.083.64.248.894.165.254.406.464.723.628.33.166.743.293 1.238.381l4.283.743c1.028.177 1.929.54 2.704 1.085a5.408 5.408 0 0 1 1.77 2.056c.419.812.628 1.694.628 2.646 0 1.18-.355 2.247-1.066 3.199-.698.939-1.662 1.669-2.893 2.189-1.219.52-2.577.78-4.075.78zm-30.399-27.11H326.7v4.207h-14.278v6.987h12.983v4.112h-12.983v7.14h14.659v4.207h-19.286V13.55zm-27.172 0h9.995c2.513 0 4.76.57 6.74 1.713a12.14 12.14 0 0 1 4.664 4.74c1.117 2.019 1.675 4.31 1.675 6.873 0 2.564-.558 4.855-1.675 6.873a12.14 12.14 0 0 1-4.664 4.74c-1.98 1.143-4.227 1.714-6.74 1.714h-9.995V13.55zm9.957 22.522c1.65 0 3.097-.375 4.341-1.124 1.256-.748 2.221-1.815 2.893-3.198.686-1.383 1.028-3.008 1.028-4.874 0-1.865-.342-3.49-1.028-4.873-.672-1.384-1.637-2.45-2.893-3.199-1.244-.749-2.691-1.123-4.341-1.123h-5.216v18.39h5.216zM270.184 13.55h4.854v26.653h-4.854V13.55zm-24.546 27.11c-1.967 0-3.712-.356-5.235-1.066-1.523-.711-2.723-1.701-3.599-2.97-.863-1.27-1.307-2.736-1.332-4.398h5.902c0 .685.184 1.294.552 1.827.368.52.882.927 1.542 1.219.66.28 1.408.419 2.246.419.812 0 1.517-.127 2.113-.381.61-.254 1.079-.616 1.409-1.085.343-.47.514-1.003.514-1.6 0-.735-.228-1.351-.685-1.846-.457-.495-1.079-.838-1.866-1.028l-4.797-.99c-1.257-.267-2.361-.743-3.313-1.428a7.05 7.05 0 0 1-2.208-2.57c-.521-1.04-.781-2.202-.781-3.484 0-1.586.4-2.995 1.199-4.226.813-1.244 1.942-2.215 3.389-2.913 1.447-.698 3.097-1.047 4.95-1.047 1.866 0 3.522.336 4.969 1.009 1.459.672 2.595 1.605 3.408 2.798.825 1.193 1.256 2.564 1.294 4.113h-5.902c0-.572-.158-1.08-.475-1.524-.305-.456-.737-.805-1.295-1.047-.558-.253-1.206-.38-1.942-.38-.723 0-1.364.12-1.923.361-.545.229-.971.559-1.275.99-.305.42-.457.914-.457 1.485 0 .635.209 1.168.628 1.6.419.418.984.71 1.694.875l4.531.933c1.346.254 2.539.755 3.58 1.504a7.765 7.765 0 0 1 2.417 2.799c.584 1.104.876 2.316.876 3.636 0 1.612-.431 3.059-1.294 4.34-.851 1.27-2.044 2.266-3.58 2.99-1.523.723-3.274 1.085-5.254 1.085zm-36.271-27.11h5.749l11.461 18.029v-18.03h5.388v26.654h-5.807l-11.403-18.03v18.03h-5.388V13.55zm-10.7 0h6.092v26.653h-6.092V13.55zm-18.469 0h6.396l9.748 26.653h-5.883l-2.018-5.883h-9.881l-1.884 5.883h-5.997l9.519-26.653zm6.758 16.315l-3.275-9.404-.361-1.714-.362 1.713-3.065 9.405h7.063zm-29.696-1.39h6.416l6.854 11.728h-6.74l-6.53-11.728zm-8.624-14.925h11.67c1.93 0 3.624.349 5.084 1.047 1.459.698 2.589 1.688 3.388 2.97.8 1.269 1.2 2.735 1.2 4.398 0 1.7-.406 3.192-1.219 4.473-.812 1.282-1.961 2.279-3.446 2.99-1.472.71-3.192 1.066-5.159 1.066h-5.616v9.709h-5.902V13.55zm11.214 12.165c.824 0 1.542-.146 2.151-.438a3.318 3.318 0 0 0 1.409-1.294c.33-.559.495-1.213.495-1.961 0-.75-.165-1.396-.495-1.942-.33-.559-.8-.984-1.409-1.276-.609-.304-1.327-.457-2.151-.457h-5.312v7.368h5.312zM135.983 13.55c1.701 0 3.217.298 4.55.895 1.333.596 2.367 1.427 3.103 2.494.736 1.066 1.104 2.278 1.104 3.636 0 1.18-.279 2.227-.837 3.141a5.62 5.62 0 0 1-2.285 2.132c-.977.495-2.1.743-3.369.743v-.61c1.396 0 2.633.292 3.712.876a6.25 6.25 0 0 1 2.551 2.418c.609 1.04.914 2.221.914 3.541 0 1.434-.387 2.71-1.162 3.827-.774 1.117-1.865 1.992-3.274 2.627-1.396.622-2.989.933-4.779.933h-12.07V13.55h11.842zm-6.111 22.179h5.464c.799 0 1.504-.133 2.113-.4.622-.28 1.098-.673 1.428-1.18.342-.508.514-1.098.514-1.77 0-.686-.172-1.289-.514-1.81-.343-.532-.825-.945-1.447-1.237-.609-.292-1.307-.438-2.094-.438h-5.464v6.835zm5.235-11.175c.724 0 1.365-.134 1.923-.4.559-.28.99-.666 1.295-1.161.317-.508.476-1.098.476-1.77 0-.648-.159-1.213-.476-1.695a2.913 2.913 0 0 0-1.295-1.104c-.558-.267-1.199-.4-1.923-.4h-5.235v6.53h5.235zM99.605 13.55h21.665v5.292h-7.862v21.36h-5.902v-21.36h-7.9V13.55zm-21.553 0h19.4v5.14h-13.65v5.654h12.355v4.988H83.801v5.73h14.031v5.14h-19.78V13.55zM60.115 34.777h3.731c.75 0 1.41-.159 1.98-.476a3.302 3.302 0 0 0 1.352-1.352c.317-.584.476-1.25.476-1.999v-17.4h5.902v17.838c0 1.676-.387 3.186-1.162 4.531a8.22 8.22 0 0 1-3.179 3.142c-1.358.761-2.887 1.142-4.588 1.142h-4.512v-5.426z" fill="#fff"/><path d="M37.068 11.92H5.555v31.512h31.513V11.92z" fill="#000"/><path d="M22.465 36.602H9.493v2.89h12.972v-2.89z" fill="#fff"/><defs><linearGradient id="paint0_linear_4630_1921" x1="4.435" y1="48" x2="48.075" y2=".982" gradientUnits="userSpaceOnUse"><stop stop-color="#FF7300"/><stop offset=".335" stop-color="#FF4C62"/><stop offset=".975" stop-color="#A202C9"/></linearGradient></defs></svg>